Run_40005
nRows=4
nColumns=164

# SIMM Motion File Header:
name Run_40005
datacolumns 164
datarows 4
otherdata 1
range 2.05833300 2.08333300
endheader
time	pelvis_tilt	pelvis_list	pelvis_rotation	pelvis_tx	pelvis_ty	pelvis_tz	hip_flexion_r	hip_adduction_r	hip_rotation_r	knee_angle_r	ankle_angle_r	hip_flexion_l	hip_adduction_l	hip_rotation_l	knee_angle_l	ankle_angle_l	lumbar_extension	lumbar_bending	lumbar_rotation	arm_flex_r	arm_add_r	arm_rot_r	elbow_flex_r	pro_sup_r	arm_flex_l	arm_add_l	arm_rot_l	elbow_flex_l	pro_sup_l	subtalar_angle_r	mtp_angle_r	subtalar_angle_l	mtp_angle_l	wrist_flex_r	wrist_dev_r	wrist_flex_l	wrist_dev_l	LASI_tx	LASI_ty	LASI_tz	RASI_tx	RASI_ty	RASI_tz	LPSI_tx	LPSI_ty	LPSI_tz	RPSI_tx	RPSI_ty	RPSI_tz	RTH1_tx	RTH1_ty	RTH1_tz	RTH2_tx	RTH2_ty	RTH2_tz	RTH3_tx	RTH3_ty	RTH3_tz	LTH1_tx	LTH1_ty	LTH1_tz	LTH2_tx	LTH2_ty	LTH2_tz	LTH3_tx	LTH3_ty	LTH3_tz	RTB1_tx	RTB1_ty	RTB1_tz	RTB2_tx	RTB2_ty	RTB2_tz	RTB3_tx	RTB3_ty	RTB3_tz	LTB1_tx	LTB1_ty	LTB1_tz	LTB2_tx	LTB2_ty	LTB2_tz	LTB3_tx	LTB3_ty	LTB3_tz	RCAL_tx	RCAL_ty	RCAL_tz	RTOE_tx	RTOE_ty	RTOE_tz	RMT5_tx	RMT5_ty	RMT5_tz	LCAL_tx	LCAL_ty	LCAL_tz	LTOE_tx	LTOE_ty	LTOE_tz	LMT5_tx	LMT5_ty	LMT5_tz	LACR_tx	LACR_ty	LACR_tz	RACR_tx	RACR_ty	RACR_tz	CLAV_tx	CLAV_ty	CLAV_tz	C7_tx	C7_ty	C7_tz	RUA1_tx	RUA1_ty	RUA1_tz	RUA2_tx	RUA2_ty	RUA2_tz	RUA3_tx	RUA3_ty	RUA3_tz	RLEL_tx	RLEL_ty	RLEL_tz	RMEL_tx	RMEL_ty	RMEL_tz	LUA1_tx	LUA1_ty	LUA1_tz	LUA2_tx	LUA2_ty	LUA2_tz	LUA3_tx	LUA3_ty	LUA3_tz	LLEL_tx	LLEL_ty	LLEL_tz	LMEL_tx	LMEL_ty	LMEL_tz	RFAsuperior_tx	RFAsuperior_ty	RFAsuperior_tz	RFAradius_tx	RFAradius_ty	RFAradius_tz	RFAulna_tx	RFAulna_ty	RFAulna_tz	LFAsuperior_tx	LFAsuperior_ty	LFAsuperior_tz	LFAradius_tx	LFAradius_ty	LFAradius_tz	LFAulna_tx	LFAulna_ty	LFAulna_tz
      2.05833300	     -2.40349533	      8.77558112	      2.79862461	      0.98578126	      1.00291802	     -0.32251129	     40.30369734	     -5.31307161	      1.71418170	   -119.32717937	      6.63198410	     11.46258918	     14.66894452	      0.48028880	    -46.99737119	     31.30224322	    -19.63690668	    -10.14734454	    -16.45023632	    -27.38808889	    -20.67020184	      0.13622399	     91.33526430	    112.58065480	     -3.04155223	    -29.62676276	      2.88536769	    117.13578319	     97.06554501	      0.00000000	      0.00000000	      0.00000000	      0.00000000	      0.00000000	      0.00000000	      0.00000000	      0.00000000	      0.97599162	      1.02513193	     -0.45083629	      0.98548915	      1.00664443	     -0.19121939	      0.80065318	      1.06206295	     -0.34756293	      0.80336881	      1.04793520	     -0.26766613	      0.96652531	      0.84064636	     -0.15026851	      1.07490079	      0.77694837	     -0.15907261	      1.06416323	      0.65130713	     -0.18200285	      0.91776363	      0.81575370	     -0.50050931	      0.98549439	      0.69565094	     -0.48397225	      0.92865554	      0.57977140	     -0.45750544	      1.06473935	      0.47825454	     -0.27353905	      0.99566980	      0.48343846	     -0.20287196	      0.94529084	      0.39951266	     -0.27594866	      0.92182775	      0.35163500	     -0.37542497	      0.85544835	      0.28595144	     -0.42102655	      0.79740147	      0.19462207	     -0.34811943	      0.71920802	      0.53808076	     -0.27563962	      0.75252533	      0.30700231	     -0.29118003	      0.71122061	      0.36445549	     -0.20177674	      0.61586770	      0.12160622	     -0.33501283	      0.84285173	      0.06654303	     -0.31396063	      0.76985482	      0.05551307	     -0.40728326	      1.04376907	      1.46378639	     -0.50063500	      1.01212840	      1.49253532	     -0.15413669	      1.06988607	      1.42314454	     -0.28644676	      0.94737449	      1.51881404	     -0.33485751	      0.94678125	      1.40672509	     -0.08003094	      0.90442761	      1.32709796	     -0.08284842	      0.83339425	      1.35960035	     -0.06623867	      0.74687688	      1.25423547	     -0.02170757	      0.72403090	      1.24996087	     -0.10134665	      1.03985799	      1.36925150	     -0.57223885	      1.04957835	      1.29807277	     -0.56588720	      0.95678901	      1.28303561	     -0.59459315	      0.98148415	      1.12814447	     -0.65880713	      0.92270521	      1.10601626	     -0.59682599	      0.82231256	      1.17376508	     -0.01119926	      0.94006602	      1.05931601	     -0.08271645	      0.90232013	      1.03200731	     -0.02675522	      1.06968015	      1.13323624	     -0.61103191	      1.17527059	      1.15654146	     -0.47009433	      1.19485826	      1.09193100	     -0.49773515
      2.06666700	     -2.92357360	      7.46472028	      3.05289001	      0.98745890	      1.00592550	     -0.32272523	     42.98574204	     -4.26652180	      0.96414077	   -116.41901521	      7.59239801	      8.72377552	     13.30129552	      1.67005934	    -44.92059395	     30.68735409	    -18.43548356	     -8.38628799	    -17.14583605	    -29.95456910	    -21.11911610	     -0.94174745	     92.76519938	    112.85465174	     -3.38164256	    -28.94272170	      2.14195366	    119.01757048	     97.52993931	      0.00000000	      0.00000000	      0.00000000	      0.00000000	      0.00000000	      0.00000000	      0.00000000	      0.00000000	      0.97703489	      1.02571552	     -0.45119401	      0.98742535	      1.01105189	     -0.19181484	      0.80251032	      1.06494439	     -0.34767471	      0.80526177	      1.05208616	     -0.26726989	      0.97149323	      0.84841791	     -0.14881307	      1.08196796	      0.78927184	     -0.15803340	      1.07681576	      0.66354444	     -0.17962699	      0.91122261	      0.81655010	     -0.49981857	      0.97208725	      0.69265646	     -0.48300613	      0.90863064	      0.57975325	     -0.45579269	      1.08724647	      0.48451070	     -0.27272980	      1.01729420	      0.48368142	     -0.20193419	      0.96714692	      0.39954429	     -0.27489217	      0.89432965	      0.35107731	     -0.37485291	      0.82615572	      0.28710350	     -0.42046737	      0.76685254	      0.19663965	     -0.34784487	      0.73653566	      0.51220899	     -0.27456754	      0.79409063	      0.28608725	     -0.29283824	      0.74624573	      0.33773164	     -0.20292381	      0.58446548	      0.12752903	     -0.33535832	      0.80976246	      0.06608770	     -0.31383878	      0.73676245	      0.05633507	     -0.40702715	      1.04627706	      1.47071292	     -0.49778286	      1.00804049	      1.49665303	     -0.15230554	      1.06974525	      1.42888869	     -0.28324134	      0.94726042	      1.52283711	     -0.33385744	      0.93971610	      1.41421096	     -0.07916845	      0.89555060	      1.33616160	     -0.08193359	      0.82459740	      1.37115516	     -0.06877539	      0.73365543	      1.26836509	     -0.02596802	      0.71610393	      1.26309372	     -0.10689088	      1.04254767	      1.37677342	     -0.57033522	      1.05368040	      1.30526575	     -0.56343093	      0.96167638	      1.28972622	     -0.59235590	      0.98763342	      1.13384408	     -0.65503777	      0.92832650	      1.11186395	     -0.59294857	      0.80804415	      1.18750426	     -0.01337453	      0.92599722	      1.07133636	     -0.08159152	      0.88645095	      1.04481411	     -0.02648347	      1.07556394	      1.14308163	     -0.60604859	      1.17783145	      1.17206604	     -0.46463584	      1.20004997	      1.10794672	     -0.49124795
      2.07500000	     -3.37130218	      6.12456101	      3.29699054	      0.98962450	      1.00968925	     -0.32310924	     45.26124640	     -3.35046786	      0.06522803	   -113.01497520	      8.40469653	      5.88822830	     11.84633756	      2.78809063	    -42.63157324	     29.38683363	    -17.26416378	     -6.61265283	    -17.84060081	    -32.57979470	    -21.61080905	     -2.09911702	     94.23473354	    113.13528409	     -3.84300354	    -28.14262593	      1.47378823	    120.87727282	     97.89529799	      0.00000000	      0.00000000	      0.00000000	      0.00000000	      0.00000000	      0.00000000	      0.00000000	      0.00000000	      0.97871305	      1.02698908	     -0.45226195	      0.98985759	      1.01640786	     -0.19272837	      0.80501327	      1.06834053	     -0.34802758	      0.80751973	      1.05686131	     -0.26696410	      0.97650433	      0.85671299	     -0.14723335	      1.08832468	      0.80146525	     -0.15678764	      1.08791963	      0.67593037	     -0.17748598	      0.90536127	      0.81835136	     -0.49908398	      0.95860001	      0.69129713	     -0.48173425	      0.88856002	      0.58159975	     -0.45384701	      1.10855995	      0.49057662	     -0.27143264	      1.03831918	      0.48329836	     -0.20098175	      0.98856517	      0.39886412	     -0.27382154	      0.86716775	      0.35248977	     -0.37434784	      0.79721295	      0.29021558	     -0.42000351	      0.73683447	      0.20030378	     -0.34764979	      0.75604262	      0.48469824	     -0.27426744	      0.83708919	      0.26591947	     -0.29452127	      0.78349869	      0.31150752	     -0.20424165	      0.55411986	      0.13525516	     -0.33574631	      0.77698720	      0.06551978	     -0.31364138	      0.70400653	      0.05764101	     -0.40653561	      1.04847225	      1.47812924	     -0.49525883	      1.00369516	      1.50174518	     -0.15076037	      1.06939072	      1.43539416	     -0.28011951	      0.94722814	      1.52752481	     -0.33309644	      0.93285863	      1.42303907	     -0.07866512	      0.88746673	      1.34607815	     -0.08157417	      0.81684832	      1.38319403	     -0.07100118	      0.72130016	      1.28333947	     -0.03090425	      0.70781691	      1.27742987	     -0.11278441	      1.04467160	      1.38460859	     -0.56844325	      1.05741851	      1.31300443	     -0.56111078	      0.96624990	      1.29658173	     -0.58936498	      0.99307734	      1.14022119	     -0.65126921	      0.93290611	      1.11868618	     -0.58907956	      0.79485913	      1.20251283	     -0.01618301	      0.91266005	      1.08402905	     -0.08075998	      0.87149097	      1.05844451	     -0.02638433	      1.08021534	      1.15279329	     -0.60178959	      1.17937743	      1.18799623	     -0.45936700	      1.20388214	      1.12422639	     -0.48463933
      2.08333300	     -3.71607280	      4.79596528	      3.43623370	      0.99229183	      1.01415519	     -0.32351065	     47.10213330	     -2.50675369	     -0.85839561	   -109.16421720	      8.98494264	      2.97064231	     10.32854937	      3.66340527	    -40.18864492	     27.37368348	    -16.16117041	     -4.89236121	    -18.46017753	    -35.22713672	    -22.12573648	     -3.30651181	     95.67454399	    113.37726388	     -4.38377374	    -27.25898405	      0.95664203	    122.66912926	     98.16782678	      0.00000000	      0.00000000	      0.00000000	      0.00000000	      0.00000000	      0.00000000	      0.00000000	      0.00000000	      0.98122419	      1.02901664	     -0.45376468	      0.99259818	      1.02252438	     -0.19382522	      0.80814490	      1.07230589	     -0.34877015	      0.81006437	      1.06225752	     -0.26694908	      0.98152374	      0.86547968	     -0.14554372	      1.09409737	      0.81342031	     -0.15538987	      1.09749416	      0.68811787	     -0.17547486	      0.90016184	      0.82105784	     -0.49829342	      0.94567386	      0.69180204	     -0.48023331	      0.86913934	      0.58545112	     -0.45206557	      1.12869321	      0.49618911	     -0.26974927	      1.05893353	      0.48212559	     -0.20000090	      1.00957037	      0.39741359	     -0.27272841	      0.84070361	      0.35585095	     -0.37400968	      0.76892213	      0.29527066	     -0.41969791	      0.70762754	      0.20571252	     -0.34751626	      0.77810821	      0.45605171	     -0.27461647	      0.88119259	      0.24679605	     -0.29599936	      0.82267593	      0.28612103	     -0.20561467	      0.52515625	      0.14484288	     -0.33608948	      0.74463372	      0.06492972	     -0.31350991	      0.67159064	      0.05944485	     -0.40569972	      1.05046425	      1.48582567	     -0.49300065	      0.99948549	      1.50769080	     -0.14942273	      1.06876391	      1.44245439	     -0.27714212	      0.94732533	      1.53278319	     -0.33254243	      0.92640720	      1.43296441	     -0.07856412	      0.88004376	      1.35656305	     -0.08194007	      0.80998221	      1.39544572	     -0.07316848	      0.70991852	      1.29880793	     -0.03640972	      0.69907536	      1.29270572	     -0.11882122	      1.04674477	      1.39260965	     -0.56635447	      1.06093249	      1.32111906	     -0.55877336	      0.97050261	      1.30350290	     -0.58629301	      0.99786431	      1.14702280	     -0.64753734	      0.93681863	      1.12610314	     -0.58531980	      0.78242545	      1.21810150	     -0.01939956	      0.90010198	      1.09704926	     -0.08025508	      0.85743455	      1.07254428	     -0.02651468	      1.08390967	      1.16221474	     -0.59805909	      1.17994535	      1.20398229	     -0.45428727	      1.20648538	      1.14036843	     -0.47794202
